<?xml version="1.0" encoding="UTF-8" standalone="no"?>
<!-- Created with Inkscape (http://www.inkscape.org/) -->

<svg
   xmlns:dc="http://purl.org/dc/elements/1.1/"
   xmlns:cc="http://creativecommons.org/ns#"
   xmlns:rdf="http://www.w3.org/1999/02/22-rdf-syntax-ns#"
   xmlns:svg="http://www.w3.org/2000/svg"
   xmlns="http://www.w3.org/2000/svg"
   xmlns:sodipodi="http://sodipodi.sourceforge.net/DTD/sodipodi-0.dtd"
   xmlns:inkscape="http://www.inkscape.org/namespaces/inkscape"
   id="svg2"
   version="1.1"
   inkscape:version="0.91 r13725"
   width="1249.2609"
   height="1422.9437"
   viewBox="0 0 1249.2609 1422.9437"
   sodipodi:docname="skip-15-forward-grey.svg">
  <metadata
     id="metadata8">
    <rdf:RDF>
      <cc:Work
         rdf:about="">
        <dc:format>image/svg+xml</dc:format>
        <dc:type
           rdf:resource="http://purl.org/dc/dcmitype/StillImage" />
        <dc:title></dc:title>
      </cc:Work>
    </rdf:RDF>
  </metadata>
  <defs
     id="defs6" />
  <sodipodi:namedview
     pagecolor="#ffffff"
     bordercolor="#666666"
     borderopacity="1"
     objecttolerance="10"
     gridtolerance="10"
     guidetolerance="10"
     inkscape:pageopacity="0"
     inkscape:pageshadow="2"
     inkscape:window-width="2560"
     inkscape:window-height="1308"
     id="namedview4"
     showgrid="false"
     fit-margin-top="0"
     fit-margin-left="0"
     fit-margin-right="0"
     fit-margin-bottom="0"
     inkscape:zoom="0.15733333"
     inkscape:cx="-170.46991"
     inkscape:cy="824.6801"
     inkscape:window-x="0"
     inkscape:window-y="43"
     inkscape:window-maximized="1"
     inkscape:current-layer="svg2" />
  <path
     style="fill:#666666"
     d="m 593.51059,1422.2538 c -141.6679,-7.7169 -271.2942,-59.8653 -378.4455,-152.2478 -12.3319,-10.6322 -39.4119,-37.1016 -51.9205,-50.7498 -28.4721,-31.0664 -53.6463,-65.0299 -76.650798,-103.4129 -10.2382,-17.0823 -29.47123,-54.8928 -37.16701,-73.0671 C 22.971532,980.53601 7.1709816,915.73081 1.1621016,845.2313 c -1.54509,-18.12773 -1.55083,-76.33661 -0.009,-94.21875 7.41146,-85.97502 27.6839504,-159.04621 64.5035604,-232.5 C 152.05869,346.14353 313.67889,222.65917 501.82599,185.2615 c 26.4164,-5.25073 54.4371,-9.08139 75.5831,-10.33281 5.1563,-0.30516 11.1658,-0.77413 13.3545,-1.04218 l 3.9794,-0.48737 0.2393,-85.17516 0.2393,-85.17518 118.0644,67.41938 c 64.9355,37.08065 118.4054,67.41937 118.8222,67.41937 0.4167,0 0.8658,-31.0247 0.9981,-68.94377 L 833.34629,0 991.51479,101.05315 c 86.99271,55.57923 158.07261,101.38747 157.95551,101.79608 -0.1172,0.40861 -71.2929,46.19092 -158.16851,101.73846 l -157.9555,100.99552 -0.2404,-69.16033 c -0.1322,-38.03818 -0.4056,-69.16033 -0.6076,-69.16033 -0.2019,0 -53.5801,30.375 -118.6183,67.5 -65.0381,37.125 -118.4483,67.5 -118.6893,67.5 -0.241,0 -0.4381,-37.75781 -0.4381,-83.90625 l 0,-83.90625 -5.025,0 c -2.7637,0 -11.5176,0.63368 -19.4531,1.40818 -92.8276,9.05991 -180.8372,40.1316 -257.9548,91.07072 -68.8714,45.49221 -128.1181,106.83726 -170.7303,176.77716 -47.412798,77.819 -74.015598,160.92965 -81.260598,253.86894 -1.37158,17.59467 -1.36602,63.09156 0.01,81.09375 5.83864,76.39091 24.6559,144.96161 58.271598,212.3437 55.565,111.3788 148.4075,202.9529 260.018,256.4654 60.8867,29.1926 120.4656,45.8854 190.8118,53.4616 18.6027,2.0034 71.1163,2.8063 91.4469,1.398 100.1719,-6.9387 191.7526,-37.5314 273.7093,-91.4332 128.06571,-84.2268 216.03321,-215.34 245.02581,-365.20429 6.4663,-33.4244 8.3915,-52.9137 10.7558,-108.87996 0.5109,-12.09433 6.729,-21.55334 17.3849,-26.44599 6.7638,-3.10557 17.6696,-2.83481 24.6907,0.61301 6.5712,3.2268 12.2211,9.44415 14.7678,16.25087 5.2876,14.13246 -0.2437,86.06497 -10.407,135.33707 -25.0599,121.49299 -83.5594,230.07079 -170.9779,317.34369 -92.38291,92.229 -210.13491,153.0213 -337.66841,174.3294 -42.4627,7.0946 -94.5425,10.1909 -134.6574,8.0057 z M 740.06509,251.40713 c 46.1484,-26.34514 83.9912,-48.21538 84.0951,-48.60055 0.1934,-0.71715 -166.5868,-96.08348 -168.9805,-96.62447 -1.1336,-0.25618 -1.324,13.67232 -1.3245,96.88958 -4e-4,76.49386 0.2448,97.08729 1.1515,96.71223 0.6337,-0.26209 38.9099,-22.03165 85.0584,-48.37679 z m 228.5911,-2.89458 c 39.19671,-25.00781 70.98221,-45.75538 70.63461,-46.10571 -0.9143,-0.92152 -144.78181,-92.7636 -146.17881,-93.31766 -0.9328,-0.36993 -1.1719,18.79463 -1.1719,93.94638 l 0,94.41112 2.7247,-1.73269 c 1.4986,-0.95298 34.7947,-22.19363 73.9914,-47.20144 z m -522.9661,653.91326 0,-163.58678 -59.2969,-0.24136 -59.2969,-0.24137 -0.2475,-29.76563 -0.2476,-29.76562 7.3068,0 c 15.6601,0 40.8108,-4.44518 54.6735,-9.66307 30.9286,-11.64148 49.4898,-31.82494 55.342,-60.1788 0.9581,-4.64165 1.7475,-10.86516 1.7542,-13.83001 l 0.012,-5.39062 30,0 30,0 0,238.125 0,238.12495 -30,0 -30,0 0,-163.58669 z m 266.3504,162.51499 c -60.5934,-6.3337 -115.3567,-45.9193 -137.2986,-99.24569 -1.8045,-4.3856 -4.1786,-11.3465 -5.2758,-15.4688 -2.0145,-7.5685 -4.6615,-24.6106 -4.6952,-30.2294 l -0.018,-3.0469 30,0 30,0 0,4.0688 c 0,10.767 7.6499,29.8709 16.7926,41.9359 9.3145,12.2915 24.177,24.5661 38.5199,31.8125 24.3273,12.29069 55.0836,14.75279 80.6116,6.45299 9.3047,-3.02519 22.2571,-9.64669 29.4002,-15.02989 51.6856,-38.9517 57.2558,-112.1979 11.9758,-157.4779 -40.1016,-40.10157 -103.415,-40.88678 -145.3987,-1.80322 l -6.0672,5.64816 -25.5403,-11.94428 c -14.0471,-6.56935 -25.5354,-12.36615 -25.5296,-12.88177 0.01,-0.51563 7.2793,-49.66406 16.1632,-109.21875 l 16.1527,-108.28125 115.5224,-0.23807 115.5224,-0.23806 0,29.53023 0,29.53023 -89.7307,0.23909 -89.7307,0.23908 -7.2737,48.28125 c -4.0005,26.55469 -7.2857,49.14134 -7.3005,50.19255 -0.026,1.84602 0.2913,1.80734 9.2895,-1.13236 18.1685,-5.93561 28.0787,-7.3477 51.1523,-7.28868 17.748,0.0454 21.9927,0.34767 30.4298,2.16696 36.6438,7.90142 69.3952,26.79766 91.9161,53.03183 18.8168,21.91931 31.4589,47.53066 37.514,75.99846 2.9241,13.7474 3.5784,38.7621 1.4145,54.0787 -3.7555,26.5826 -13.3886,50.6103 -29.4357,73.4212 -7.147,10.15939 -26.7302,29.54319 -37.6199,37.23689 -32.6127,23.0412 -72.7096,33.7111 -111.4621,29.6602 z"
     id="path3338"
     inkscape:connector-curvature="0" />
</svg>
