<?xml version="1.0" encoding="UTF-8" standalone="no"?>
<!-- Created with Inkscape (http://www.inkscape.org/) -->

<svg
   xmlns:dc="http://purl.org/dc/elements/1.1/"
   xmlns:cc="http://creativecommons.org/ns#"
   xmlns:rdf="http://www.w3.org/1999/02/22-rdf-syntax-ns#"
   xmlns:svg="http://www.w3.org/2000/svg"
   xmlns="http://www.w3.org/2000/svg"
   xmlns:sodipodi="http://sodipodi.sourceforge.net/DTD/sodipodi-0.dtd"
   xmlns:inkscape="http://www.inkscape.org/namespaces/inkscape"
   id="svg2"
   version="1.1"
   inkscape:version="0.91 r13725"
   width="1249.113"
   height="1422.7703"
   viewBox="0 0 1249.113 1422.7703"
   sodipodi:docname="skip-15-back-grey.svg">
  <metadata
     id="metadata8">
    <rdf:RDF>
      <cc:Work
         rdf:about="">
        <dc:format>image/svg+xml</dc:format>
        <dc:type
           rdf:resource="http://purl.org/dc/dcmitype/StillImage" />
        <dc:title></dc:title>
      </cc:Work>
    </rdf:RDF>
  </metadata>
  <defs
     id="defs6" />
  <sodipodi:namedview
     pagecolor="#ffffff"
     bordercolor="#666666"
     borderopacity="1"
     objecttolerance="10"
     gridtolerance="10"
     guidetolerance="10"
     inkscape:pageopacity="0"
     inkscape:pageshadow="2"
     inkscape:window-width="2560"
     inkscape:window-height="1308"
     id="namedview4"
     showgrid="false"
     fit-margin-top="0"
     fit-margin-left="0"
     fit-margin-right="0"
     fit-margin-bottom="0"
     inkscape:zoom="0.58494286"
     inkscape:cx="88.193497"
     inkscape:cy="726.53875"
     inkscape:window-x="0"
     inkscape:window-y="43"
     inkscape:window-maximized="1"
     inkscape:current-layer="svg2" />
  <path
     style="fill:#666666"
     d="m 593.52239,1422.0804 c -141.6679,-7.7169 -271.29426,-59.8653 -378.44558,-152.2478 -12.3319,-10.6322 -39.41186,-37.1016 -51.92042,-50.7498 -28.4721,-31.0664 -53.64631,-65.0299 -76.650836,-103.4129 -10.2382,-17.0823 -29.47123,-54.8928 -37.16701,-73.0671 C 17.962484,968.50538 0.41845378,885.88118 0.02738378,810.37026 c -0.10239,-19.769 -0.0171,-20.8054 2.05562002,-24.9714 3.32711,-6.6872 8.1379802,-11.6857 14.0335802,-14.5808 4.54552,-2.2322 6.51382,-2.6317 12.86648,-2.6115 9.72997,0.031 15.66665,2.5624 21.81573,9.3027 6.46477,7.0865 7.56952,11.136 8.1975,30.0485 2.00089,60.26 9.59965,107.85322 25.27232,158.28772 46.300736,148.99542 154.344786,274.32212 294.371476,341.45902 60.8867,29.1926 120.4656,45.8854 190.8118,53.4616 18.6027,2.0034 71.1163,2.8063 91.4469,1.398 100.172,-6.9387 191.7526,-37.5314 273.7094,-91.4332 128.06561,-84.2268 216.03311,-215.34 245.02581,-365.20432 18.116,-93.64262 12.0207,-192.70052 -17.3879,-282.58071 -15.8895,-48.56235 -38.6736,-95.64984 -66.7195,-137.8881 -47.3335,-71.28588 -113.84541,-133.61222 -188.57471,-176.70762 -26.7675,-15.43647 -65.1575,-32.96508 -95.1563,-43.4477 -47.7424,-16.68288 -101.0076,-27.6584 -146.968,-30.28339 l -11.0007,-0.6283 0,84.12982 0,84.12981 -6.3282,-3.5202 c -3.4804,-1.93611 -56.5312,-32.18962 -117.8906,-67.23002 -61.3594,-35.04038 -112.0899,-63.91274 -112.7344,-64.16077 -0.931,-0.35828 -1.1719,13.75043 -1.1719,68.63369 0,41.88799 -0.3411,68.96166 -0.8666,68.77218 -0.4766,-0.17188 -71.8067,-45.66406 -158.51131,-101.09375 C 99.236044,203.22631 98.686824,202.86448 100.86233,201.23096 102.06311,200.32933 173.28775,154.68352 259.13931,99.79582 L 415.23309,0 l 0.2404,68.96476 c 0.2269,65.07322 0.3327,68.93819 1.875,68.49388 0.899,-0.25899 54.369,-30.60542 118.8221,-67.43653 l 117.1875,-66.96564 0.2393,85.08457 0.2393,85.08457 3.9795,0.48737 c 2.1887,0.26805 8.1982,0.7349 13.3544,1.03745 14.1935,0.8328 40.2549,3.99839 58.5938,7.11718 112.0562,19.05676 216.2877,68.37556 303.75001,143.72428 22.3942,19.29266 55.2897,53.21171 75.0978,77.43463 72.2921,88.40482 119.5457,196.66942 134.8265,308.90625 6.6421,48.78689 7.4942,104.45289 2.3391,152.81249 -17.62,165.28874 -101.4981,317.64314 -232.1756,421.71874 -83.42651,66.4434 -181.34281,110.2213 -285.42241,127.6107 -42.4627,7.0946 -94.5424,10.1909 -134.6574,8.0057 z m 1.242,-1219.75534 0,-97.57646 -3.0469,1.84797 c -1.6758,1.01638 -39.75,22.80463 -84.6094,48.41833 -44.8594,25.61369 -81.8618,46.86348 -82.2277,47.22174 -0.5675,0.55585 167.2105,97.3213 169.1808,97.57451 0.3868,0.0497 0.7032,-43.81904 0.7032,-97.48609 z M 356.29025,108.92745 c -0.59482,-0.59482 -146.7987,92.94576 -146.55621,93.766 0.12369,0.41838 33.12251,21.76496 73.3307,47.43686 l 73.10582,46.67618 0.2389,-93.76046 c 0.1314,-51.56824 0.0777,-93.92161 -0.11921,-94.11858 z m 89.41154,763.31781 0,-163.59374 -59.5444,0 -59.54441,0 0.24753,-29.76563 0.24755,-29.76562 12.1875,-0.59945 c 63.58113,-3.12724 102.89663,-32.87154 106.10323,-80.2729 l 0.5875,-8.68485 29.6234,0.24735 29.6234,0.24735 0.2362,237.89059 0.2362,237.89074 -30.0018,0 -30.0019,0 0,-163.59384 z m 268.1251,163.03304 c -31.0626,-3.6999 -55.5503,-12.5499 -80.1563,-28.9689 -40.0533,-26.72682 -66.8063,-70.49942 -68.1856,-111.56412 l -0.2519,-7.5 29.5313,0 29.5312,0 0.6202,6.2717 c 2.9574,29.9059 30.1952,61.9769 63.8922,75.2295 37.6922,14.8238 78.4311,7.7667 109.1508,-18.908 12.5404,-10.889 24.2275,-28.8586 29.7767,-45.7832 16.1336,-49.20642 -7.7045,-103.82372 -54.985,-125.98012 -16.9525,-7.9442 -36.5774,-11.3878 -53.8941,-9.4569 -24.8942,2.7759 -44.8977,11.974 -61.9434,28.4831 -5.5931,5.417 -5.9222,5.5908 -8.4375,4.4539 -1.4396,-0.6506 -13.072,-6.0838 -25.85,-12.0738 l -23.2325,-10.8907 0.5629,-3.7978 c 0.3096,-2.0887 7.6196,-51.25863 16.2445,-109.26644 l 15.6815,-105.46875 115.2694,0 115.2693,0 0,29.53125 0,29.53125 -89.5312,0.24048 -89.5313,0.24048 -7.2924,48.97827 c -4.0108,26.93805 -7.2803,49.46101 -7.2656,50.05101 0.017,0.68507 3.1606,0.0617 8.6986,-1.72489 43.9087,-14.16537 90.5915,-9.71509 130.6027,12.45036 26.9491,14.92929 52.689,41.73598 66.452,69.20598 26.0882,52.0705 22.8021,113.88802 -8.6264,162.27712 -7.224,11.1224 -14.3755,19.6298 -25.2185,30 -23.6568,22.62502 -51.4418,36.61892 -84.8713,42.74542 -7.5139,1.3771 -35.2731,2.4963 -42.0103,1.6938 z"
     id="path4138"
     inkscape:connector-curvature="0" />
</svg>
